M48
;DRILL file {KiCad (5.0.0)} date 11/20/18 23:03:39
;FORMAT={-:-/ absolute / inch / decimal}
FMAT,2
INCH,TZ
T1C0.0118
T2C0.0157
T3C0.0197
T4C0.0236
T5C0.0276
T6C0.0299
T7C0.0354
T8C0.0394
T9C0.1181
%
G90
G05
M72
T1
X5.4Y-1.9
X5.4Y-2.
X5.4Y-2.1
X5.4Y-2.2
X5.4Y-2.3
X5.4Y-2.4
X5.4Y-2.5
X5.4Y-2.6
X5.4Y-2.7
X5.4Y-2.8
X5.4Y-2.9
X5.4Y-3.
X5.4Y-3.6
X5.4Y-3.7
X5.4Y-3.8
X5.4Y-3.9
X5.4143Y-3.485
X5.46Y-3.465
X5.47Y-3.62
X5.475Y-3.39
X5.48Y-3.78
X5.4948Y-3.5689
X5.4951Y-3.5374
X5.5Y-3.715
X5.505Y-3.805
X5.505Y-3.98
X5.5056Y-2.1
X5.51Y-3.8375
X5.51Y-3.92
X5.585Y-4.52
X5.625Y-4.525
X5.657Y-4.368
X5.66Y-4.415
X5.7Y-1.3
X5.8Y-4.8
X5.825Y-2.7
X5.86Y-2.66
X5.875Y-4.1652
X5.885Y-3.545
X5.9Y-2.2
X5.9Y-4.8
X5.9282Y-2.2228
X5.9581Y-2.2327
X5.965Y-1.57
X5.975Y-3.29
X5.979Y-4.656
X5.98Y-3.12
X5.98Y-3.1515
X5.98Y-3.1829
X5.98Y-3.2144
X5.9968Y-2.985
X6.Y-1.3
X6.Y-2.24
X6.Y-4.8
X6.015Y-1.53
X6.028Y-2.21
X6.03Y-2.09
X6.03Y-3.455
X6.035Y-2.97
X6.0456Y-2.8957
X6.055Y-1.88
X6.055Y-1.955
X6.0567Y-2.223
X6.065Y-1.57
X6.07Y-2.06
X6.075Y-2.76
X6.08Y-2.1
X6.0842Y-2.2077
X6.09Y-2.035
X6.0957Y-2.3301
X6.1Y-1.3
X6.1Y-4.8
X6.102Y-2.99
X6.1133Y-2.8953
X6.115Y-1.53
X6.116Y-2.247
X6.13Y-2.97
X6.136Y-2.384
X6.14Y-3.1141
X6.1413Y-2.3403
X6.167Y-4.553
X6.175Y-3.015
X6.18Y-2.79
X6.1828Y-3.1178
X6.186Y-2.352
X6.19Y-2.205
X6.1917Y-3.1733
X6.212Y-2.3288
X6.2159Y-3.1509
X6.2222Y-3.01
X6.225Y-2.965
X6.2517Y-3.1474
X6.2598Y-2.8191
X6.26Y-2.205
X6.2661Y-2.85
X6.27Y-3.02
X6.2803Y-3.09
X6.2803Y-3.1215
X6.3087Y-2.205
X6.3087Y-2.393
X6.315Y-2.83
X6.32Y-2.89
X6.32Y-2.965
X6.325Y-3.015
X6.345Y-2.865
X6.359Y-3.095
X6.359Y-3.13
X6.36Y-3.02
X6.3642Y-2.4258
X6.3705Y-2.8195
X6.385Y-3.335
X6.39Y-3.375
X6.4Y-3.01
X6.4078Y-2.6983
X6.41Y-2.97
X6.4375Y-2.713
X6.448Y-2.384
X6.45Y-2.99
X6.4542Y-2.32
X6.46Y-2.07
X6.46Y-3.02
X6.462Y-2.88
X6.465Y-3.605
X6.4679Y-2.8419
X6.4692Y-3.095
X6.4728Y-1.9622
X6.477Y-2.205
X6.4952Y-3.1227
X6.5Y-1.3
X6.5Y-2.97
X6.505Y-1.8275
X6.51Y-1.38
X6.5111Y-2.0122
X6.517Y-3.3078
X6.52Y-2.06
X6.521Y-2.653
X6.5291Y-2.9865
X6.5398Y-3.345
X6.54Y-2.4
X6.55Y-2.7
X6.55Y-3.01
X6.5525Y-1.8325
X6.56Y-1.38
X6.5602Y-3.1472
X6.563Y-3.319
X6.564Y-2.624
X6.57Y-2.39
X6.575Y-3.118
X6.585Y-3.003
X6.588Y-2.882
X6.595Y-2.0816
X6.5951Y-2.9659
X6.6Y-1.3
X6.6Y-2.325
X6.604Y-3.1
X6.605Y-2.01
X6.6101Y-2.3599
X6.615Y-3.015
X6.6222Y-2.9825
X6.626Y-2.722
X6.6925Y-1.915
X6.726Y-2.863
X6.73Y-3.089
X6.749Y-2.83
X6.76Y-2.1072
X6.791Y-2.836
X6.829Y-2.831
X6.8511Y-3.0539
X6.858Y-2.859
X6.8695Y-2.1125
X6.885Y-2.5725
X6.9Y-1.3
X6.935Y-2.5725
X6.96Y-1.622
X6.975Y-2.17
X6.995Y-1.675
X6.995Y-2.885
X7.Y-1.3
X7.Y-1.575
X7.02Y-2.175
X7.025Y-2.85
X7.055Y-1.52
X7.065Y-2.175
X7.095Y-2.965
X7.0985Y-1.993
X7.1Y-1.3
X7.1Y-1.55
X7.3Y-2.12
X7.37Y-2.83
X7.399Y-3.609
X7.405Y-2.83
X7.413Y-2.1085
X7.452Y-3.609
X7.455Y-3.785
X7.457Y-3.999
X7.465Y-3.05
X7.467Y-4.21
X7.48Y-2.42
X7.48Y-2.48
X7.48Y-2.54
X7.4825Y-1.626
X7.485Y-1.84
X7.49Y-1.525
X7.5Y-1.3
X7.5195Y-2.0695
X7.54Y-1.53
X7.54Y-3.08
X7.542Y-3.786
X7.546Y-3.996
X7.55Y-4.21
X7.56Y-2.42
X7.56Y-2.48
X7.56Y-2.54
X7.585Y-1.53
X7.6Y-1.3
X7.607Y-2.07
X7.615Y-3.07
X7.635Y-1.53
X7.64Y-2.42
X7.64Y-2.48
X7.64Y-2.54
X7.64Y-4.16
X7.68Y-3.055
X7.704Y-3.787
X7.708Y-4.004
X7.7289Y-3.0489
X7.76Y-2.87
X7.78Y-2.755
X7.791Y-2.0735
X7.802Y-2.718
X7.815Y-2.785
X7.825Y-2.895
X7.84Y-2.945
X7.865Y-2.97
X7.89Y-2.765
X7.89Y-3.66
X7.9Y-4.8
X7.915Y-4.
X7.945Y-2.79
X7.95Y-2.835
X7.977Y-4.132
X7.98Y-2.995
X8.Y-1.3
X8.02Y-1.53
X8.022Y-2.678
X8.03Y-1.37
X8.066Y-3.954
X8.07Y-1.85
X8.075Y-1.385
X8.1Y-1.3
X8.112Y-2.706
X8.124Y-2.738
X8.155Y-3.025
X8.165Y-2.135
X8.167Y-2.177
X8.178Y-2.748
X8.194Y-2.984
X8.2Y-3.72
X8.2Y-3.78
X8.2Y-3.84
X8.2Y-4.8
X8.24Y-4.
X8.249Y-2.908
X8.27Y-3.72
X8.27Y-3.78
X8.27Y-3.84
X8.28Y-2.652
X8.293Y-2.988
X8.3Y-1.3
X8.3Y-4.2
X8.305Y-4.13
X8.305Y-4.36
X8.306Y-2.913
X8.34Y-3.72
X8.34Y-3.78
X8.34Y-3.84
X8.37Y-3.158
X8.371Y-2.989
X8.4Y-1.3
X8.415Y-2.055
X8.42Y-1.625
X8.5Y-1.3
X8.5006Y-1.9206
X8.5435Y-1.8773
X8.555Y-2.165
X8.5862Y-1.835
X8.6Y-1.3
X8.6Y-4.8
X8.7Y-1.3
X8.7Y-4.8
X8.705Y-2.175
X8.855Y-1.96
X9.Y-1.5
X9.Y-1.6
X9.Y-1.8
X9.Y-1.9
X9.Y-2.
X9.Y-2.1
X9.Y-2.3
X9.Y-2.4
X9.Y-2.5
X9.Y-2.6
X9.Y-2.7
X9.Y-2.8
X9.Y-2.9
X9.Y-3.
X9.Y-3.1
X9.Y-3.2
X9.Y-3.3
X9.Y-3.4
X9.Y-3.5
X9.Y-3.6
X9.Y-3.7
X9.Y-3.8
X9.Y-3.9
X9.Y-4.
X9.Y-4.1
X9.Y-4.2
X9.Y-4.3
X9.Y-4.4
X9.Y-4.5
X9.Y-4.6
T2
X5.475Y-4.11
X5.495Y-3.235
X5.495Y-3.305
X5.495Y-3.355
X5.5Y-3.42
X5.5Y-3.6
X5.5031Y-3.7581
X5.565Y-2.41
X5.565Y-2.48
X5.565Y-2.545
X5.625Y-2.435
X5.625Y-2.5
X5.625Y-2.56
X5.8578Y-1.7472
X5.885Y-2.97
X5.964Y-1.6654
X5.9818Y-3.3251
X6.0261Y-3.4196
X6.045Y-4.25
X6.0913Y-2.8728
X6.215Y-3.715
X6.2164Y-1.7763
X6.235Y-4.195
X6.335Y-4.005
X6.355Y-1.465
X6.357Y-1.7428
X6.4586Y-1.6752
X6.46Y-1.375
X6.46Y-4.445
X6.54Y-4.15
X6.64Y-4.26
X6.695Y-1.745
X6.7Y-4.38
X6.72Y-1.46
X6.755Y-4.27
X6.8Y-4.38
X6.855Y-1.45
X6.9Y-4.38
X6.91Y-1.81
X6.945Y-4.21
X6.955Y-1.375
X7.016Y-4.559
X7.065Y-4.03
X7.2Y-1.75
X7.205Y-1.45
X7.25Y-4.2
X7.26Y-4.39
X7.3234Y-4.59
X7.385Y-1.75
X7.39Y-1.45
X7.64Y-4.295
X7.725Y-1.75
X7.735Y-1.445
X7.865Y-1.745
X7.875Y-1.445
X7.945Y-3.18
X7.948Y-4.435
X7.96Y-1.61
X7.964Y-4.358
X7.98Y-1.365
X8.055Y-2.56
X8.065Y-1.9
X8.11Y-3.4
X8.215Y-1.745
X8.235Y-1.45
X8.278Y-4.802
X8.28Y-4.688
X8.409Y-4.634
X8.409Y-4.749
X8.6775Y-1.6325
T3
X7.585Y-4.65
T4
X5.82Y-4.38
X5.8575Y-1.4575
X6.171Y-3.37
X6.2225Y-1.455
X7.96Y-1.61
X8.05Y-1.61
X8.14Y-1.61
T5
X8.5609Y-3.4447
X8.5609Y-3.5235
X8.5609Y-3.6022
X8.5609Y-3.6809
X8.5609Y-3.7597
X8.62Y-3.4644
X8.62Y-3.5628
X8.62Y-3.6416
X8.62Y-3.74
T6
X8.495Y-2.63
X8.495Y-2.73
X8.495Y-2.83
X8.495Y-2.93
X8.595Y-2.68
X8.595Y-2.78
X8.595Y-2.88
X8.595Y-2.98
T7
X5.7329Y-3.688
X5.7329Y-3.788
X5.7329Y-3.888
X5.7329Y-3.988
X5.7329Y-4.088
X5.7329Y-4.188
X5.7329Y-4.288
X5.7329Y-4.388
X5.7329Y-4.488
X5.7329Y-4.588
X5.7329Y-4.688
X5.7329Y-4.788
X7.3234Y-4.59
X7.325Y-3.69
X7.325Y-3.79
X7.325Y-3.89
X7.325Y-3.99
X7.325Y-4.49
X7.325Y-4.69
X7.325Y-4.79
T8
X8.59Y-4.045
X8.69Y-4.045
X8.79Y-4.045
X5.465Y-1.545
X5.465Y-1.645
X5.465Y-1.745
X8.59Y-4.155
X8.69Y-4.155
X8.79Y-4.155
X5.575Y-1.545
X5.575Y-1.645
X5.575Y-1.745
X5.685Y-1.545
X5.685Y-1.645
X5.685Y-1.745
T9
X8.895Y-1.365
X8.895Y-4.765
X5.495Y-4.765
X5.525Y-1.365
T4
X8.5688Y-3.3502G85X8.6121Y-3.3502
G05
X8.5688Y-3.8542G85X8.6121Y-3.8542
G05
X8.9094Y-3.3502G85X8.9409Y-3.3502
G05
X8.9094Y-3.8542G85X8.9409Y-3.8542
G05
T0
M30
