G04 #@! TF.GenerationSoftware,KiCad,Pcbnew,(5.0.0)*
G04 #@! TF.CreationDate,2018-11-20T23:03:42-05:00*
G04 #@! TF.ProjectId,DART6UL_BREAKOUT,4441525436554C5F425245414B4F5554,rev?*
G04 #@! TF.SameCoordinates,Original*
G04 #@! TF.FileFunction,Soldermask,Bot*
G04 #@! TF.FilePolarity,Negative*
%FSLAX46Y46*%
G04 Gerber Fmt 4.6, Leading zero omitted, Abs format (unit mm)*
G04 Created by KiCad (PCBNEW (5.0.0)) date 11/20/18 23:03:42*
%MOMM*%
%LPD*%
G01*
G04 APERTURE LIST*
%ADD10C,3.600000*%
%ADD11R,1.900000X1.900000*%
%ADD12C,1.900000*%
%ADD13C,2.000000*%
%ADD14C,2.400000*%
%ADD15O,2.100000X2.100000*%
%ADD16R,2.100000X2.100000*%
%ADD17C,6.400000*%
%ADD18C,1.924000*%
%ADD19C,1.300000*%
%ADD20C,1.600000*%
%ADD21O,2.800000X1.600000*%
%ADD22O,2.500000X1.600000*%
G04 APERTURE END LIST*
D10*
G04 #@! TO.C,J4*
X224663000Y-65532000D03*
X224663000Y-76962000D03*
D11*
X218313000Y-75692000D03*
D12*
X215773000Y-74422000D03*
X218313000Y-73152000D03*
X215773000Y-71882000D03*
X218313000Y-70612000D03*
X215773000Y-69342000D03*
X218313000Y-68072000D03*
X215773000Y-66802000D03*
D13*
X220773000Y-79122000D03*
X220773000Y-63372000D03*
G04 #@! TD*
D14*
G04 #@! TO.C,J3*
X195988000Y-121910000D03*
G04 #@! TD*
D15*
G04 #@! TO.C,J6*
X144399000Y-44323000D03*
X144399000Y-41783000D03*
D16*
X144399000Y-39243000D03*
G04 #@! TD*
G04 #@! TO.C,J7*
X138811000Y-39243000D03*
D15*
X138811000Y-41783000D03*
X138811000Y-44323000D03*
G04 #@! TD*
D16*
G04 #@! TO.C,J8*
X141605000Y-39243000D03*
D15*
X141605000Y-41783000D03*
X141605000Y-44323000D03*
G04 #@! TD*
D17*
G04 #@! TO.C,MH1*
X225933000Y-34671000D03*
G04 #@! TD*
G04 #@! TO.C,MH2*
X225933000Y-121031000D03*
G04 #@! TD*
G04 #@! TO.C,MH3*
X139573000Y-121031000D03*
G04 #@! TD*
G04 #@! TO.C,MH4*
X140335000Y-34671000D03*
G04 #@! TD*
D18*
G04 #@! TO.C,U7*
X145615000Y-93676000D03*
X145615000Y-96216000D03*
X145615000Y-98756000D03*
X145615000Y-101296000D03*
X145615000Y-103836000D03*
X145615000Y-106376000D03*
X145615000Y-108916000D03*
X145615000Y-111456000D03*
X145615000Y-113996000D03*
X145615000Y-116536000D03*
X145615000Y-119076000D03*
X145615000Y-121616000D03*
X186055000Y-121666000D03*
X186055000Y-119126000D03*
X186015000Y-116586000D03*
X186055000Y-114046000D03*
X186055000Y-101346000D03*
X186055000Y-98806000D03*
X186055000Y-96266000D03*
X186055000Y-93726000D03*
G04 #@! TD*
D19*
G04 #@! TO.C,SW1*
X170492000Y-122428000D03*
X177292000Y-122428000D03*
G04 #@! TD*
D20*
G04 #@! TO.C,J11*
X218948000Y-94996000D03*
X218948000Y-92496000D03*
X218948000Y-90496000D03*
X218948000Y-87996000D03*
X217448000Y-87496000D03*
X217448000Y-89496000D03*
X217448000Y-91496000D03*
X217448000Y-93496000D03*
X217448000Y-95496000D03*
D21*
X218198000Y-85096000D03*
X218198000Y-97896000D03*
D22*
X226698000Y-85096000D03*
X226698000Y-97896000D03*
G04 #@! TD*
D16*
G04 #@! TO.C,J22*
X223266000Y-102743000D03*
D15*
X220726000Y-102743000D03*
X218186000Y-102743000D03*
G04 #@! TD*
D16*
G04 #@! TO.C,J23*
X223266000Y-105537000D03*
D15*
X220726000Y-105537000D03*
X218186000Y-105537000D03*
G04 #@! TD*
M02*
